<?xml version="1.0" encoding="UTF-8"?>
<svg width="106px" height="89px" viewBox="0 0 106 89" version="1.1" xmlns="http://www.w3.org/2000/svg" xmlns:xlink="http://www.w3.org/1999/xlink">
    <!-- Generator: Sketch 52.5 (67469) - http://www.bohemiancoding.com/sketch -->
    <title>Logo</title>
    <desc>Created with Sketch.</desc>
    <defs>
        <path d="M24,47.1863909 C37.254834,47.1863909 27.2276312,25.7036137 24,25.7036137 C20.7723688,25.7036137 23.2207994,21.9748201 21.5729347,14.6675705 C19.781402,6.72324307 12.5499433,0.60637546 10.4495472,0.0208256153 C8.66597189,-0.476400688 0,7.95285793 0,22.8645462 C0,37.7762344 10.745166,47.1863909 24,47.1863909 Z" id="path-1"></path>
    </defs>
    <g id="Page-1" stroke="none" stroke-width="1" fill="none" fill-rule="evenodd">
        <g id="Saving-Copy" transform="translate(-59.000000, -47.000000)">
            <g id="Logo" transform="translate(27.000000, 48.000000)">
                <text id="fortune.ly" font-family="DINCondensed-Bold, DIN Condensed" font-size="36" font-style="condensed" font-weight="bold">
                    <tspan x="32.472" y="84" fill="#FFBD12">fortune.</tspan>
                    <tspan x="119.16" y="84" fill="#F3F3F3">ly</tspan>
                </text>
                <g id="Group" transform="translate(49.000000, 0.000000)">
                    <path d="M36,47.1957595 C49.254834,47.1957595 60,37.785603 60,22.8739148 C60,7.96222654 51.9659918,0.344585639 50.8956047,0.0301942289 C49.0474043,-0.512654552 41.5572771,6.33737801 39.2276312,14.6769391 C37.1382966,22.1562445 39.2276312,25.2041173 36,25.2041173 C32.7723688,25.2041173 35.2207994,21.9841887 33.5729347,14.6769391 C31.781402,6.73261168 24.5499433,0.615744074 22.4495472,0.0301942289 C20.6659719,-0.467032074 12,7.96222654 12,22.8739148 C12,37.785603 22.745166,47.1957595 36,47.1957595 Z" id="Oval" stroke="#FFBD12" stroke-width="2"></path>
                    <path d="M1,26.3328162 L1,40.6980533 C6.3197288,36.7196474 13.1598038,34.7369422 21.486294,34.7369422 C27.3259694,34.7369422 30.8023716,36.0664775 37.0449918,39.8000003 C37.2208814,39.9052207 37.2208814,39.9052207 37.3965181,40.0103086 C43.6223096,43.7347608 46.9447877,45 52.7317624,45 C61.7124944,45 67.8244761,43.9933164 71,42.0604389 L71,28.0673191 C67.6228873,30.4311718 61.5434767,31.555011 52.7317624,31.555011 C45.9800722,31.555011 42.2728877,30.1030767 36.1561893,26.1151957 C35.9195132,25.9608238 35.9195132,25.9608238 35.6837643,25.8070783 C30.191062,22.2267834 27.1055776,21 21.486294,21 C13.6929541,21 6.87090725,22.778876 1,26.3328162 Z" id="Rectangle" stroke="#DFE3E8" stroke-width="2"></path>
                    <g id="Oval" transform="translate(13.000000, 0.000000)">
                        <mask id="mask-2" fill="white">
                            <use xlink:href="#path-1"></use>
                        </mask>
                        <g id="Mask"></g>
                        <path d="M28.8182726,50 C43.0773109,50 32.2904335,26.3257077 28.8182726,26.3257077 C25.3461118,26.3257077 27.9800388,22.2165299 26.2073296,14.1638484 C24.2800679,5.40909896 16.5007441,-1.33176657 14.2412191,-1.97704991 C12.3225177,-2.52499959 3,6.76415009 3,23.1970193 C3,39.6298885 14.5592344,50 28.8182726,50 Z" stroke="#FFBD12" stroke-width="2" mask="url(#mask-2)"></path>
                    </g>
                </g>
            </g>
        </g>
    </g>
</svg>