<?xml version="1.0" encoding="UTF-8"?>
<svg width="18px" height="20px" viewBox="0 0 18 20" version="1.1" xmlns="http://www.w3.org/2000/svg" xmlns:xlink="http://www.w3.org/1999/xlink">
    <!-- Generator: Sketch 52.5 (67469) - http://www.bohemiancoding.com/sketch -->
    <title>icon color</title>
    <desc>Created with Sketch.</desc>
    <g id="Page-1" stroke="none" stroke-width="1" fill="none" fill-rule="evenodd">
        <g id="Saving-Copy" transform="translate(-27.000000, -408.000000)" fill="#F3F3F3">
            <g id="Side-nav" transform="translate(0.000000, 242.000000)">
                <g id="Calendar-tab" transform="translate(27.000000, 159.000000)">
                    <g id="Calendar" transform="translate(0.000000, 7.000000)">
                        <path d="M16.5,2 L13.5,2 L13.5,0.5 L12,0.5 L12,2 L6,2 L6,0.5 L4.5,0.5 L4.5,2 L1.5,2 C0.671572875,2 0,2.67157288 0,3.5 L0,18.5 C0,19.3284271 0.671572875,20 1.5,20 L16.5,20 C17.3284271,20 18,19.3284271 18,18.5 L18,3.5 C18,2.67157288 17.3284271,2 16.5,2 Z M16.5,18.5 L1.5,18.5 L1.5,8 L16.5,8 L16.5,18.5 Z M16.5,6.5 L1.5,6.5 L1.5,3.5 L4.5,3.5 L4.5,5 L6,5 L6,3.5 L12,3.5 L12,5 L13.5,5 L13.5,3.5 L16.5,3.5 L16.5,6.5 Z" id="icon-color"></path>
                    </g>
                </g>
            </g>
        </g>
    </g>
</svg>