<?xml version="1.0" encoding="UTF-8"?>
<svg width="4px" height="24px" viewBox="0 0 4 24" version="1.1" xmlns="http://www.w3.org/2000/svg" xmlns:xlink="http://www.w3.org/1999/xlink">
    <!-- Generator: Sketch 57 (83077) - https://sketch.com -->
    <title>icon color</title>
    <desc>Created with Sketch.</desc>
    <defs>
        <path d="M2,4 C3.1045695,4 4,3.1045695 4,2 C4,0.8954305 3.1045695,0 2,0 C0.8954305,0 0,0.8954305 0,2 C0,3.1045695 0.8954305,4 2,4 Z M2,14 C3.1045695,14 4,13.1045695 4,12 C4,10.8954305 3.1045695,10 2,10 C0.8954305,10 0,10.8954305 0,12 C0,13.1045695 0.8954305,14 2,14 Z M2,24 C3.1045695,24 4,23.1045695 4,22 C4,20.8954305 3.1045695,20 2,20 C0.8954305,20 0,20.8954305 0,22 C0,23.1045695 0.8954305,24 2,24 Z" id="path-1"></path>
    </defs>
    <g id="Hi-fi-mockup" stroke="none" stroke-width="1" fill="none" fill-rule="evenodd">
        <g id="Saving-Copy" transform="translate(-1356.000000, -512.000000)">
            <g id="Goal-1" transform="translate(289.000000, 491.000000)">
                <g id="icon/navigation/overflow-menu/24" transform="translate(1067.000000, 21.000000)">
                    <mask id="mask-2" fill="white">
                        <use xlink:href="#path-1"></use>
                    </mask>
                    <use id="icon-color" fill="#F3F3F3" xlink:href="#path-1"></use>
                </g>
            </g>
        </g>
    </g>
</svg>