<?xml version="1.0" encoding="UTF-8"?>
<svg width="21px" height="21px" viewBox="0 0 21 21" version="1.1" xmlns="http://www.w3.org/2000/svg" xmlns:xlink="http://www.w3.org/1999/xlink">
    <!-- Generator: Sketch 52.5 (67469) - http://www.bohemiancoding.com/sketch -->
    <title>icon color</title>
    <desc>Created with Sketch.</desc>
    <g id="Page-1" stroke="none" stroke-width="1" fill="none" fill-rule="evenodd">
        <g id="Saving-Copy" transform="translate(-26.000000, -328.000000)" fill="#F3F3F3">
            <g id="Side-nav" transform="translate(0.000000, 242.000000)">
                <g id="Saving-tab" transform="translate(0.000000, 63.000000)">
                    <g id="icon/data/check/24" transform="translate(26.000000, 23.000000)">
                        <path d="M3.92093657,15.9924525 L9.91360907,9.99978 L10.9742591,11.06043 L4.98158657,17.0531025 L3.92093657,15.9924525 Z M11.2242641,21 C11.1492641,21 11.0742641,21 10.9242641,20.925 C10.6992641,20.85 10.4742641,20.625 10.4742641,20.325 L9.72426407,15.075 L11.2242641,14.85 L11.8242641,18.825 L14.2992641,16.875 L14.2992641,11.25 C14.2992641,11.025 14.3742641,10.875 14.5242641,10.725 L17.5992641,7.725 C18.8742641,6.375 19.5492641,4.725 19.5492641,2.925 L19.5492641,1.5 L18.1242641,1.5 C16.3992641,1.5 14.5992641,2.25 13.3992641,3.45 L10.3242641,6.525 C10.0992641,6.675 9.94926407,6.75 9.72426407,6.75 L4.09926407,6.75 L2.14926407,9.225 L6.12426407,9.825 L5.89926407,11.325 L0.649264069,10.575 C0.349264069,10.5 0.124264069,10.35 0.0492640687,10.125 C-0.0257359313,9.9 -0.0257359313,9.6 0.124264069,9.375 L3.12426407,5.625 C3.27426407,5.325 3.49926407,5.25 3.72426407,5.25 L9.42426407,5.25 L12.2742641,2.4 C13.7742641,0.9 15.9492641,0 18.0492641,0 L19.4742641,0 C20.3742641,0 20.9742641,0.6 20.9742641,1.5 L20.9742641,2.925 C20.9742641,5.1 20.1492641,7.125 18.5742641,8.775 L15.7242641,11.55 L15.7242641,17.25 C15.7242641,17.475 15.6492641,17.7 15.4242641,17.85 L11.6742641,20.85 C11.5242641,20.925 11.3742641,21 11.2242641,21 Z" id="icon-color"></path>
                    </g>
                </g>
            </g>
        </g>
    </g>
</svg>