<?xml version="1.0" encoding="UTF-8"?>
<svg width="21px" height="21px" viewBox="0 0 21 21" version="1.1" xmlns="http://www.w3.org/2000/svg" xmlns:xlink="http://www.w3.org/1999/xlink">
    <!-- Generator: Sketch 52.5 (67469) - http://www.bohemiancoding.com/sketch -->
    <title>icon color</title>
    <desc>Created with Sketch.</desc>
    <g id="Page-1" stroke="none" stroke-width="1" fill="none" fill-rule="evenodd">
        <g id="Saving-Copy" transform="translate(-26.000000, -967.000000)" fill="#F3F3F3">
            <g id="Side-nav" transform="translate(0.000000, 242.000000)">
                <g id="Setting-tab" transform="translate(26.000000, 718.000000)">
                    <path d="M18.4404392,18.0402789 C18.4404392,17.8527789 18.4404392,17.6652789 18.4404392,17.4702789 C18.4404392,17.2752789 18.4404392,17.0877789 18.4404392,16.8927789 L19.8804392,15.6252789 C20.424457,15.1432074 20.5445535,14.3404568 20.1654392,13.7202789 L18.3954392,10.7202789 C18.0370725,10.1033812 17.2937844,9.82425614 16.6179392,10.0527789 L14.7954392,10.6677789 C14.4814234,10.4554324 14.1531455,10.2649811 13.8129392,10.0977789 L13.4379392,8.20777887 C13.2963865,7.49510521 12.6644012,6.9863571 11.9379392,7.00027887 L8.42043919,7.00027887 C7.69397714,6.9863571 7.06199191,7.49510521 6.92043919,8.20777887 L6.54543919,10.0977789 C6.20031157,10.2619478 5.86700882,10.4499005 5.54793919,10.6602789 L3.76293919,10.0152789 C3.07802693,9.79321475 2.33194581,10.0891288 1.98543919,10.7202789 L0.215439189,13.7202789 C-0.141433286,14.3387975 -0.0127997195,15.1231485 0.522939189,15.5952789 L1.94043919,16.9002789 C1.94043919,17.0877789 1.94043919,17.2752789 1.94043919,17.4702789 C1.94043919,17.6652789 1.94043919,17.8527789 1.94043919,18.0477789 L0.522939189,19.3077789 C-0.0326228031,19.7847722 -0.162601604,20.5931769 0.215439189,21.2202789 L1.98543919,24.2202789 C2.34380586,24.8371765 3.08709397,25.1163016 3.76293919,24.8877789 L5.58543919,24.2727789 C5.89945498,24.4851254 6.22773284,24.6755766 6.56793919,24.8427789 L6.94293919,26.7327789 C7.08449191,27.4454525 7.71647714,27.9542006 8.44293919,27.9402789 L11.9829392,27.9402789 C12.7094012,27.9542006 13.3413865,27.4454525 13.4829392,26.7327789 L13.8579392,24.8427789 C14.2030668,24.67861 14.5363696,24.4906573 14.8554392,24.2802789 L16.6704392,24.8952789 C17.3322817,25.0945951 18.0446383,24.8158468 18.3954392,24.2202789 L20.1654392,21.2202789 C20.5223117,20.6017602 20.3936781,19.8174092 19.8579392,19.3452789 L18.4404392,18.0402789 Z M17.0979392,23.4702789 L14.5254392,22.6002789 C13.9213984,23.1058871 13.2335183,23.5018623 12.4929392,23.7702789 L11.9604392,26.4702789 L8.42043919,26.4702789 L7.88793919,23.8077789 C7.15276718,23.5341385 6.47027256,23.1358052 5.87043919,22.6302789 L3.28293919,23.4702789 L1.51293919,20.4702789 L3.56043919,18.6777789 C3.42223508,17.9013812 3.42223508,17.1066765 3.56043919,16.3302789 L1.51293919,14.4702789 L3.28293919,11.4702789 L5.85543919,12.3402789 C6.45947998,11.8346707 7.14736003,11.4386954 7.88793919,11.1702789 L8.42043919,8.47027887 L11.9604392,8.47027887 L12.4929392,11.1327789 C13.2281112,11.4064192 13.9106058,11.8047525 14.5104392,12.3102789 L17.0979392,11.4702789 L18.8679392,14.4702789 L16.8204392,16.2702789 C16.9588007,17.0466626 16.9588007,17.8413951 16.8204392,18.6177789 L18.8679392,20.4702789 L17.0979392,23.4702789 Z M10.1904392,21.9702789 C7.70515782,21.9702789 5.69043919,19.9555602 5.69043919,17.4702789 C5.69043919,14.9849975 7.70515782,12.9702789 10.1904392,12.9702789 C12.6757206,12.9702789 14.6904392,14.9849975 14.6904392,17.4702789 C14.702594,18.6674379 14.2323924,19.8191063 13.3858295,20.6656692 C12.5392666,21.5122321 11.3875982,21.9824337 10.1904392,21.9702789 Z M10.1904392,14.4702789 C9.3892135,14.451614 8.615259,14.761687 8.04855318,15.3283929 C7.48184735,15.8950987 7.17177428,16.6690532 7.19043919,17.4702789 C7.17177428,18.2715046 7.48184735,19.0454591 8.04855318,19.6121649 C8.615259,20.1788707 9.3892135,20.4889438 10.1904392,20.4702789 C10.9916649,20.4889438 11.7656194,20.1788707 12.3323252,19.6121649 C12.899031,19.0454591 13.2091041,18.2715046 13.1904392,17.4702789 C13.2091041,16.6690532 12.899031,15.8950987 12.3323252,15.3283929 C11.7656194,14.761687 10.9916649,14.451614 10.1904392,14.4702789 Z" id="icon-color"></path>
                </g>
            </g>
        </g>
    </g>
</svg>